<svg width="120" height="52" viewBox="0 0 120 52" fill="none" xmlns="http://www.w3.org/2000/svg">
<path fill-rule="evenodd" clip-rule="evenodd" d="M69.1658 21.5713C69.366 20.0593 69.5162 18.8413 69.6149 17.9173C69.7165 16.9933 69.7902 16.2541 69.8402 15.6997C69.8903 15.1453 69.9237 14.7337 69.9418 14.4649C69.957 14.1961 69.9654 13.9609 69.9654 13.7593C70.8999 14.9017 71.6342 16.1701 72.1682 17.5645C72.7022 18.9589 73.2529 20.2945 73.8217 21.5713H69.1658ZM110.817 17.8165C110.55 17.1949 110.218 16.6489 109.816 16.1785C109.415 15.7081 108.981 15.3385 108.514 15.0697C108.047 14.8009 107.596 14.7337 107.163 14.8681C104.025 15.3049 101.088 15.9433 98.3513 16.7833C95.6145 17.6233 92.9111 18.6649 90.2411 19.9081C89.7071 20.1769 89.3733 20.5717 89.2412 21.0925C89.1063 21.6133 89.1146 22.1761 89.2648 22.7809C89.4164 23.3857 89.6737 23.9821 90.0408 24.5701C90.408 25.1581 90.8251 25.6705 91.2924 26.1073C91.7597 26.5441 92.2603 26.8633 92.7943 27.0649C93.3283 27.2665 93.8123 27.2665 94.2461 27.0649C94.9137 26.5945 95.5728 26.2417 96.2237 26.0065C96.8745 25.7713 97.5323 25.5529 98.2012 25.3513C97.3 26.5945 96.1486 27.6613 94.7482 28.5517C93.345 29.4421 91.8445 30.0385 90.2411 30.3409C88.639 30.3409 87.4626 29.9713 86.7116 29.2321C85.9607 28.4929 85.5101 27.5353 85.3613 26.3593C85.2097 25.1833 85.2931 23.8813 85.6102 22.4533C85.9273 21.0253 86.3695 19.6057 86.9369 18.1945C87.5043 16.7833 88.1301 15.4813 88.8143 14.2885C89.4985 13.0957 90.1229 12.1633 90.6916 11.4913C91.3592 10.6849 92.06 10.0381 92.7943 9.55086C93.5286 9.06366 94.4464 8.61846 95.5478 8.21526C96.0151 7.98006 96.4907 7.84566 96.9746 7.81206C97.4586 7.77846 98.0343 7.76166 98.7018 7.76166C99.1357 7.72806 99.5543 7.91286 99.9534 8.31606C100.354 8.71926 100.779 9.14766 101.231 9.60126C101.681 10.0549 102.165 10.4245 102.683 10.7101C103.199 10.9957 103.808 10.9873 104.509 10.6849C104.81 10.4833 105.001 10.1725 105.085 9.75246C105.168 9.33246 105.168 8.88726 105.085 8.41686C105.001 7.94646 104.86 7.49286 104.659 7.05606C104.459 6.61926 104.242 6.30006 104.009 6.09846C103.007 4.41846 101.789 3.15006 100.354 2.29326C98.9187 1.43646 97.3918 0.957662 95.7731 0.856862C94.1544 0.756062 92.519 1.01646 90.8669 1.63806C89.2148 2.25966 87.6712 3.19206 86.236 4.43526C85.0679 5.51046 84.0332 6.94686 83.1321 8.74446C82.2323 10.5421 81.4869 12.4573 80.9042 14.4901C80.3202 16.5229 79.903 18.5389 79.6527 20.5381C79.5066 21.7029 79.4413 22.7697 79.4357 23.7581C78.8683 22.4295 78.3427 21.0743 77.8768 19.6813C77.3428 18.0853 76.8255 16.4725 76.3234 14.8429C75.8242 13.2133 75.2652 11.6257 74.6463 10.0801C74.0289 8.53446 73.3113 7.07286 72.495 5.69526C71.6773 4.31766 70.6844 3.05766 69.5162 1.91526C69.0156 1.64646 68.355 1.54566 67.5387 1.61286C66.7196 1.68006 66.0618 1.94886 65.5598 2.41926C64.8589 3.76326 64.4348 5.23326 64.2832 6.82926C64.1344 8.42526 64.0579 10.0549 64.0579 11.7181C64.0579 13.3813 64.0259 15.0277 63.9592 16.6573C63.891 18.2869 63.5906 19.8073 63.0566 21.2185C62.1569 20.9833 61.271 20.7397 60.4033 20.4877C60.3504 20.4723 60.299 20.4499 60.2461 20.4331C60.2809 20.2469 60.3212 20.0425 60.3546 19.8577C60.8219 17.4385 61.0054 15.0781 60.9053 12.7765C60.8038 10.4749 60.6202 8.11446 60.3546 5.69526C60.1543 4.82166 59.7455 3.89766 59.128 2.92326C58.5106 1.94886 57.768 1.22646 56.9002 0.756062C56.3315 0.655262 55.899 0.697262 55.5986 0.882062C55.2968 1.06686 55.0729 1.32726 54.9227 1.66326C54.7711 1.99926 54.6891 2.37726 54.6724 2.79726C54.6543 3.21726 54.6474 3.59526 54.6474 3.93126C55.1146 6.58566 55.2301 9.31566 54.9978 12.1213C54.8087 14.3935 54.3998 16.6153 53.7949 18.7881C53.6767 18.8679 53.5571 18.9379 53.4445 19.0513C52.6782 19.5889 52.3278 20.2693 52.3931 21.0925C52.4432 21.6847 52.6365 22.2657 52.9007 22.8411C52.7561 23.3213 52.6142 23.8029 52.4446 24.2929C52.211 24.7633 51.9509 25.3597 51.6686 26.0821C51.3849 26.8045 50.9093 27.4009 50.2418 27.8713C50.2418 27.9721 50.175 28.0309 50.0415 28.0477C49.9066 28.0645 49.7481 28.0477 49.5659 27.9973C49.381 27.9469 49.2224 27.8629 49.0889 27.7453C48.9568 27.6277 48.8901 27.5185 48.8901 27.4177C48.6884 27.1825 48.5716 26.8633 48.5396 26.4601C48.5063 26.0569 48.4896 25.6369 48.4896 25.2001C48.6884 24.5281 48.63 23.7889 48.3143 22.9825C47.9959 22.1761 47.6218 21.4369 47.1865 20.7649C47.0544 20.5297 46.8124 20.2693 46.462 19.9837C46.1116 19.6981 45.7347 19.4545 45.3356 19.2529C44.9351 19.0513 44.5346 18.9505 44.1341 18.9505C43.7335 18.9505 43.4151 19.1185 43.1815 19.4545C42.5139 20.7649 41.8548 22.0753 41.2053 23.3857C40.5545 24.6961 39.894 25.8889 39.2278 26.9641C38.9942 26.4937 38.8593 25.9561 38.8273 25.3513C38.7926 24.7465 38.7759 24.1081 38.7759 23.4361C38.5422 21.4201 38.4268 19.4965 38.4268 17.6653C38.4268 15.8341 38.5422 13.9105 38.7759 11.8945C38.8426 11.3905 38.7606 10.8361 38.527 10.2313C38.2933 9.62646 37.9763 9.05526 37.5757 8.51766C37.1752 7.98006 36.733 7.51806 36.2491 7.13166C35.7637 6.74526 35.2979 6.50166 34.8473 6.40086C34.3967 6.30006 34.0046 6.39246 33.6708 6.67806C33.337 6.96366 33.1368 7.50966 33.07 8.31606C32.8364 11.0041 32.7363 13.6753 32.7697 16.3297C32.7794 17.0899 32.842 17.8501 32.8851 18.6117C32.0173 17.9621 31.0925 17.3727 30.0412 16.9093C28.556 16.2541 27.004 15.7249 25.3867 15.3217C23.7666 14.9185 22.2897 14.4985 20.9547 14.0617C20.2538 13.7929 19.6697 13.5409 19.2025 13.3057C18.7338 13.0705 18.2846 12.7177 17.8521 12.2473C18.051 12.2473 18.2513 12.1801 18.4515 12.0457C18.5516 11.9785 18.6351 11.8945 18.7018 11.7937C20.0702 10.8865 21.5068 10.1305 23.0087 9.52566C24.5092 8.92086 26.0612 8.61846 27.6632 8.61846C28.2639 8.55126 28.6811 8.30766 28.9148 7.88766C29.1484 7.46766 29.2569 6.96366 29.2402 6.37566C29.2221 5.78766 29.09 5.15766 28.8397 4.48566C28.5894 3.81366 28.2639 3.20886 27.8634 2.67126C27.4629 2.13366 27.0124 1.69686 26.5117 1.36086C26.0111 1.02486 25.4938 0.890462 24.9598 0.957662C23.1575 0.957662 21.3886 1.26006 19.653 1.86486C17.9161 2.46966 16.2487 3.24246 14.6467 4.18326C13.7789 4.75446 13.0947 5.41806 12.5941 6.17406C12.0935 6.93006 11.775 7.73646 11.6429 8.59326C11.5094 9.45006 11.5428 10.3489 11.743 11.2897C11.9447 12.2305 12.3271 13.1545 12.8945 14.0617C14.0292 15.8425 15.3643 17.2621 16.8996 18.3205C18.4348 19.3789 20.0869 20.3449 21.8558 21.2185C22.7236 21.6889 23.608 22.0501 24.5092 22.3021C25.4103 22.5541 26.2948 22.7977 27.1626 23.0329C27.4296 23.0329 27.6715 23.1085 27.8885 23.2597C28.1054 23.4109 28.3307 23.4865 28.5643 23.4865C28.0971 23.7217 27.7299 23.9485 27.4629 24.1669C27.1945 24.3853 26.979 24.6289 26.8121 24.8977C26.1112 25.3345 25.4103 25.7461 24.7094 26.1325C24.0086 26.5189 23.1895 26.8465 22.2577 27.1153C21.3886 27.5521 20.5208 27.8797 19.653 28.0981C18.7839 28.3165 18.0176 28.4257 17.3501 28.4257H14.6467C14.548 28.4257 14.3797 28.4005 14.1475 28.3501C13.9124 28.2997 13.6788 28.2493 13.4452 28.1989C13.2115 28.1485 13.0363 28.0981 12.9195 28.0477C12.8027 27.9973 12.7944 27.9721 12.8945 27.9721C12.6608 27.7705 12.3605 27.5185 11.9933 27.2161C11.6262 26.9137 11.2507 26.6785 10.8669 26.5105C10.4845 26.3425 10.1076 26.2837 9.74187 26.3341C9.37335 26.3845 9.07297 26.6449 8.83934 27.1153C8.50697 27.5521 8.32202 28.0141 8.29003 28.5013C8.25527 28.9885 8.31367 29.4757 8.46526 29.9629C8.61405 30.4501 8.80736 30.9121 9.03959 31.3489C9.27461 31.7857 9.50824 32.1721 9.74187 32.5081C10.6416 33.6169 11.7096 34.4653 12.9445 35.0533C14.1794 35.6413 15.4978 36.0193 16.8996 36.1873C18.3013 36.3553 19.7365 36.3469 21.205 36.1621C22.6735 35.9773 24.0753 35.6497 25.4103 35.1793C26.5117 34.8433 27.755 34.3141 29.1401 33.5917C30.5251 32.8693 31.7934 32.0041 32.9449 30.9961C33.4942 30.5145 33.9823 30.0035 34.4176 29.4659C34.5845 30.0693 34.768 30.6643 34.9724 31.2481C35.7401 33.4321 37.007 35.4145 38.7759 37.1953C39.0095 37.2961 39.2862 37.4375 39.6033 37.6237C39.9204 37.8085 40.2277 37.9513 40.5295 38.0521C40.8299 38.1529 41.1052 38.1865 41.3555 38.1529C41.6059 38.1193 41.7811 37.9345 41.8812 37.5985C42.5473 36.4897 43.1898 35.3893 43.8086 34.2973C44.4261 33.2053 44.9684 32.1049 45.4357 30.9961L46.2868 31.8529C46.8208 32.6257 47.5286 33.3397 48.4145 33.9949C49.2989 34.6501 50.207 35.1037 51.1429 35.3557C52.0761 35.6077 52.9772 35.5909 53.845 35.3053C54.7127 35.0197 55.4303 34.3225 55.9991 33.2137C56.6666 32.3065 57.2256 31.3153 57.6748 30.2401C58.06 29.3231 58.3924 28.3613 58.6928 27.3701C59.0363 27.3995 59.377 27.4303 59.7288 27.4429C60.2128 27.4597 60.6953 27.5101 61.1807 27.5941C61.6632 27.6781 62.1569 27.8713 62.6561 28.1737C62.7229 28.8793 62.6645 29.8285 62.4809 31.0213C62.2987 32.2141 62.0971 33.5161 61.8815 34.9273C61.6632 36.3385 61.488 37.7749 61.3559 39.2365C61.221 40.6981 61.2377 42.0505 61.4059 43.2937C61.5714 44.5355 61.9399 45.6121 62.5073 46.5193C63.0733 47.4265 63.9592 48.0145 65.1593 48.2833C65.6933 48.5185 66.1119 48.5773 66.4123 48.4597C66.7113 48.3421 66.9296 48.1321 67.0617 47.8297C67.1952 47.5273 67.2717 47.1745 67.287 46.7713C67.3037 46.3681 67.3134 46.0153 67.3134 45.7129C67.1451 44.2681 67.1048 42.8485 67.1869 41.4541C67.2717 40.0597 67.4038 38.6821 67.5874 37.3213C67.7709 35.9605 67.9642 34.6081 68.1631 33.2641C68.3647 31.9201 68.5135 30.5425 68.6151 29.1313C69.9167 29.1313 71.3185 29.1985 72.8204 29.3329C74.3223 29.4673 75.8409 29.5345 77.3748 29.5345C77.5764 29.8705 77.8087 30.2149 78.0757 30.5677C78.3441 30.9205 78.643 31.2481 78.9782 31.5505C79.3106 31.8529 79.6707 32.0965 80.0546 32.2813C80.437 32.4661 80.8458 32.5585 81.2811 32.5585C81.6065 32.4577 81.8388 32.2813 82.0237 32.0657C82.7747 33.1311 83.6508 34.0705 84.6604 34.8769C86.0441 35.9857 87.6294 36.7585 89.4164 37.1953C91.2006 37.6321 93.0947 37.5985 95.0972 37.0945C96.5324 36.6577 97.9759 35.9521 99.4277 34.9777C100.88 34.0033 102.089 32.8693 103.057 31.5757C104.025 30.2821 104.651 28.9129 104.935 27.4681C105.218 26.0233 104.91 24.6289 104.009 23.2849C104.876 23.0497 105.836 22.8313 106.887 22.6297C107.938 22.4281 108.915 22.2265 109.816 22.0249C110.417 21.8905 110.825 21.5965 111.042 21.1429C111.259 20.6893 111.343 20.1769 111.293 19.6057C111.243 19.0345 111.084 18.4381 110.817 17.8165V17.8165Z" fill="#00D2BE"/>
<path fill-rule="evenodd" clip-rule="evenodd" d="M118.783 46.7678C117.632 45.3706 115.952 44.182 113.745 43.2034C111.538 42.2262 108.946 41.4408 105.971 40.8514C102.995 40.2606 99.702 39.8266 96.0919 39.5466C92.4804 39.2666 88.6895 39.1196 84.7178 39.1042C80.7475 39.0888 76.6687 39.1896 72.4814 39.4066C71.6178 39.4514 70.764 39.5102 69.9046 39.5606C69.8392 40.2508 69.7516 40.9326 69.7126 41.6312C69.6334 43.0256 69.6723 44.4452 69.8322 45.89C69.8322 46.1784 69.8239 46.5186 69.8086 46.898C74.0696 46.7496 78.3083 46.6586 82.5233 46.6292C86.8538 46.597 91.0522 46.6432 95.1198 46.7678C99.1861 46.8924 103.08 47.101 106.799 47.3964C110.519 47.6918 113.949 48.088 117.091 48.585C117.547 48.6466 117.925 48.6312 118.225 48.5388C118.524 48.445 118.747 48.305 118.892 48.1188C119.035 47.9326 119.1 47.7156 119.089 47.4664C119.077 47.2186 118.975 46.9848 118.783 46.7678" fill="#00D2BE"/>
<path fill-rule="evenodd" clip-rule="evenodd" d="M59.1162 43.4349C58.9744 42.3457 58.9661 41.1585 59.0467 39.9027C57.6755 40.0007 56.303 40.0959 54.9401 40.2093C50.8071 40.5509 46.77 40.9541 42.8289 41.4203C38.8892 41.8865 35.2026 42.3751 31.7705 42.8875C28.3384 43.3999 25.2261 43.9053 22.4337 44.4023C19.6412 44.8979 17.3036 45.3641 15.4178 45.7995C13.7741 46.1719 12.154 46.5527 10.5589 46.9405C8.96382 47.3297 7.4049 47.7567 5.88214 48.2215C5.51918 48.3153 5.05331 48.4399 4.48593 48.5953C3.91854 48.7507 3.36228 48.9131 2.81715 49.0839C2.2734 49.2547 1.79641 49.4493 1.38617 49.6663C0.974533 49.8833 0.756201 50.1171 0.73256 50.3649C0.636605 50.8003 0.799311 51.1027 1.22207 51.2735C1.64483 51.4443 2.17049 51.5297 2.79907 51.5297C3.42903 51.5297 4.07429 51.4905 4.73902 51.4135C5.40376 51.3365 5.94194 51.2665 6.35218 51.2035C7.99732 51.0481 9.64107 50.8857 11.2848 50.7149C12.9286 50.5441 14.5723 50.3649 16.2147 50.1787C19.4299 49.8679 22.9232 49.5501 26.6946 49.2239C30.4647 48.8977 34.4113 48.5869 38.5332 48.2915C42.6551 47.9961 46.8966 47.7259 51.2605 47.4767C54.3143 47.3031 57.3946 47.1813 60.4707 47.0525C60.3692 46.9251 60.2621 46.8033 60.1759 46.6605C59.6294 45.7533 59.2762 44.6767 59.1162 43.4349" fill="#00D2BE"/>
</svg>
